<?xml version="1.0" standalone="no"?>
<svg xmlns:xlink="http://www.w3.org/1999/xlink" id="wave" style="transform:rotate(0deg); transition: 0.3s" viewBox="0 0 1440 320" version="1.1" xmlns="http://www.w3.org/2000/svg"><defs><linearGradient id="sw-gradient-0" x1="0" x2="0" y1="1" y2="0"><stop stop-color="rgba(179, 171, 162, 1)" offset="0%"/><stop stop-color="rgba(220, 217, 213, 1)" offset="100%"/></linearGradient></defs><path style="transform:translate(0, 0px); opacity:1" fill="url(#sw-gradient-0)" d="M0,96L48,101.3C96,107,192,117,288,101.3C384,85,480,43,576,58.7C672,75,768,149,864,149.3C960,149,1056,75,1152,58.7C1248,43,1344,85,1440,96C1536,107,1632,85,1728,74.7C1824,64,1920,64,2016,58.7C2112,53,2208,43,2304,58.7C2400,75,2496,117,2592,112C2688,107,2784,53,2880,48C2976,43,3072,85,3168,90.7C3264,96,3360,64,3456,74.7C3552,85,3648,139,3744,160C3840,181,3936,171,4032,176C4128,181,4224,203,4320,224C4416,245,4512,267,4608,266.7C4704,267,4800,245,4896,202.7C4992,160,5088,96,5184,96C5280,96,5376,160,5472,186.7C5568,213,5664,203,5760,213.3C5856,224,5952,256,6048,266.7C6144,277,6240,267,6336,240C6432,213,6528,171,6624,176C6720,181,6816,235,6864,261.3L6912,288L6912,320L6864,320C6816,320,6720,320,6624,320C6528,320,6432,320,6336,320C6240,320,6144,320,6048,320C5952,320,5856,320,5760,320C5664,320,5568,320,5472,320C5376,320,5280,320,5184,320C5088,320,4992,320,4896,320C4800,320,4704,320,4608,320C4512,320,4416,320,4320,320C4224,320,4128,320,4032,320C3936,320,3840,320,3744,320C3648,320,3552,320,3456,320C3360,320,3264,320,3168,320C3072,320,2976,320,2880,320C2784,320,2688,320,2592,320C2496,320,2400,320,2304,320C2208,320,2112,320,2016,320C1920,320,1824,320,1728,320C1632,320,1536,320,1440,320C1344,320,1248,320,1152,320C1056,320,960,320,864,320C768,320,672,320,576,320C480,320,384,320,288,320C192,320,96,320,48,320L0,320Z"/></svg>