<?xml version="1.0" standalone="no"?>
<svg xmlns:xlink="http://www.w3.org/1999/xlink" id="wave" style="transform:rotate(0deg); transition: 0.3s" viewBox="0 0 1440 320" version="1.1" xmlns="http://www.w3.org/2000/svg"><defs><linearGradient id="sw-gradient-0" x1="0" x2="0" y1="1" y2="0"><stop stop-color="rgba(179, 171, 162, 1)" offset="0%"/><stop stop-color="rgba(220, 217, 213, 1)" offset="100%"/></linearGradient></defs><path style="transform:translate(0, 0px); opacity:1" fill="url(#sw-gradient-0)" d="M0,224L48,197.3C96,171,192,117,288,117.3C384,117,480,171,576,165.3C672,160,768,96,864,96C960,96,1056,160,1152,160C1248,160,1344,96,1440,101.3C1536,107,1632,181,1728,218.7C1824,256,1920,256,2016,224C2112,192,2208,128,2304,128C2400,128,2496,192,2592,181.3C2688,171,2784,85,2880,48C2976,11,3072,21,3168,21.3C3264,21,3360,11,3456,5.3C3552,0,3648,0,3744,37.3C3840,75,3936,149,4032,165.3C4128,181,4224,139,4320,149.3C4416,160,4512,224,4608,218.7C4704,213,4800,139,4896,106.7C4992,75,5088,85,5184,96C5280,107,5376,117,5472,133.3C5568,149,5664,171,5760,197.3C5856,224,5952,256,6048,256C6144,256,6240,224,6336,176C6432,128,6528,64,6624,32C6720,0,6816,0,6864,0L6912,0L6912,320L6864,320C6816,320,6720,320,6624,320C6528,320,6432,320,6336,320C6240,320,6144,320,6048,320C5952,320,5856,320,5760,320C5664,320,5568,320,5472,320C5376,320,5280,320,5184,320C5088,320,4992,320,4896,320C4800,320,4704,320,4608,320C4512,320,4416,320,4320,320C4224,320,4128,320,4032,320C3936,320,3840,320,3744,320C3648,320,3552,320,3456,320C3360,320,3264,320,3168,320C3072,320,2976,320,2880,320C2784,320,2688,320,2592,320C2496,320,2400,320,2304,320C2208,320,2112,320,2016,320C1920,320,1824,320,1728,320C1632,320,1536,320,1440,320C1344,320,1248,320,1152,320C1056,320,960,320,864,320C768,320,672,320,576,320C480,320,384,320,288,320C192,320,96,320,48,320L0,320Z"/></svg>