<?xml version="1.0" standalone="no"?>
<svg xmlns:xlink="http://www.w3.org/1999/xlink" id="wave" style="transform:rotate(0deg); transition: 0.3s" viewBox="0 0 1440 320" version="1.1" xmlns="http://www.w3.org/2000/svg"><defs><linearGradient id="sw-gradient-0" x1="0" x2="0" y1="1" y2="0"><stop stop-color="rgba(179, 171, 162, 1)" offset="0%"/><stop stop-color="rgba(220, 217, 213, 1)" offset="100%"/></linearGradient></defs><path style="transform:translate(0, 0px); opacity:1" fill="url(#sw-gradient-0)" d="M0,256L48,240C96,224,192,192,288,192C384,192,480,224,576,234.7C672,245,768,235,864,192C960,149,1056,75,1152,80C1248,85,1344,171,1440,170.7C1536,171,1632,85,1728,42.7C1824,0,1920,0,2016,0C2112,0,2208,0,2304,26.7C2400,53,2496,107,2592,149.3C2688,192,2784,224,2880,245.3C2976,267,3072,277,3168,250.7C3264,224,3360,160,3456,122.7C3552,85,3648,75,3744,101.3C3840,128,3936,192,4032,181.3C4128,171,4224,85,4320,53.3C4416,21,4512,43,4608,90.7C4704,139,4800,213,4896,202.7C4992,192,5088,96,5184,90.7C5280,85,5376,171,5472,208C5568,245,5664,235,5760,197.3C5856,160,5952,96,6048,106.7C6144,117,6240,203,6336,224C6432,245,6528,203,6624,176C6720,149,6816,139,6864,133.3L6912,128L6912,320L6864,320C6816,320,6720,320,6624,320C6528,320,6432,320,6336,320C6240,320,6144,320,6048,320C5952,320,5856,320,5760,320C5664,320,5568,320,5472,320C5376,320,5280,320,5184,320C5088,320,4992,320,4896,320C4800,320,4704,320,4608,320C4512,320,4416,320,4320,320C4224,320,4128,320,4032,320C3936,320,3840,320,3744,320C3648,320,3552,320,3456,320C3360,320,3264,320,3168,320C3072,320,2976,320,2880,320C2784,320,2688,320,2592,320C2496,320,2400,320,2304,320C2208,320,2112,320,2016,320C1920,320,1824,320,1728,320C1632,320,1536,320,1440,320C1344,320,1248,320,1152,320C1056,320,960,320,864,320C768,320,672,320,576,320C480,320,384,320,288,320C192,320,96,320,48,320L0,320Z"/></svg>